<svg width="18" height="17" viewBox="0 0 18 17" fill="none" xmlns="http://www.w3.org/2000/svg">
<path d="M9.01681 16.7376C8.42373 16.7466 7.91241 16.5478 7.48631 16.1335C7.23827 15.8924 6.99578 15.6465 6.71032 15.4476C5.97868 14.9398 5.17706 14.9342 4.4662 15.4642C4.15303 15.6977 3.88282 15.9873 3.5745 16.227C2.84702 16.7945 2.04262 16.9088 1.2119 16.5035C0.374941 16.0961 -0.0338383 15.3783 0.00218972 14.459C0.0389106 13.5334 0.529445 12.8683 1.39065 12.5329C2.24008 12.2025 3.02231 12.384 3.69229 12.9999C3.9722 13.2569 4.22786 13.5396 4.54102 13.7592C5.17151 14.2012 5.85951 14.2199 6.51356 13.8167C6.88977 13.5846 7.18631 13.2597 7.51541 12.9715C8.16461 12.4034 8.90734 12.2177 9.72767 12.5142C10.5459 12.8101 11.0087 13.4191 11.1494 14.274C11.3579 15.5446 10.3478 16.7099 9.01681 16.7376Z" fill="black" style="fill:black;fill-opacity:1;"/>
<path d="M15.8055 16.7446C14.5948 16.7405 13.6263 15.7694 13.6256 14.5586C13.6256 13.3485 14.6365 12.3517 15.8458 12.3705C17.0683 12.3893 18.0083 13.3694 17.9999 14.6172C17.9923 15.7945 17.0071 16.7495 15.8055 16.7446Z" fill="black" style="fill:black;fill-opacity:1;"/>
<path d="M2.18172 6.18492C3.41681 6.17934 4.37163 7.13966 4.37441 8.39058C4.37719 9.57251 3.39247 10.5565 2.20537 10.5593C1.00367 10.5628 0.0154599 9.58435 0.000160479 8.37873C-0.0144435 7.18008 0.969589 6.19049 2.18103 6.18492H2.18172Z" fill="black" style="fill:black;fill-opacity:1;"/>
<path d="M6.82326 8.54942C6.82118 7.47251 7.33836 6.6813 8.17304 6.35677C9.03477 6.02184 9.82647 6.17926 10.5107 6.80404C10.7575 7.02941 10.9808 7.27905 11.2484 7.48222C11.9998 8.05361 12.7437 8.07442 13.5035 7.51273C13.7989 7.2943 14.063 7.03288 14.3354 6.78393C15.0259 6.1536 15.9674 6.0163 16.8055 6.4282C17.5959 6.81652 18.0631 7.66945 17.9931 8.59588C17.9286 9.44812 17.2957 10.2164 16.427 10.464C15.6332 10.6901 14.9261 10.5146 14.3181 9.95086C14.0817 9.73173 13.8536 9.49943 13.5971 9.30527C12.8519 8.7415 12.0165 8.73457 11.2657 9.28863C10.9794 9.50012 10.7291 9.76016 10.4566 9.99038C9.74605 10.5909 8.9384 10.7164 8.10094 10.3482C7.25447 9.97582 6.84267 9.27198 6.82326 8.54803V8.54942Z" fill="black" style="fill:black;fill-opacity:1;"/>
<path d="M2.39491 0.0107424C2.79121 0.0218091 3.31223 0.218935 3.73902 0.656071C3.99606 0.919597 4.25727 1.17967 4.56558 1.38786C5.24595 1.84644 5.95611 1.84436 6.62401 1.37333C6.9448 1.14647 7.22263 0.869797 7.51016 0.604196C8.19815 -0.0300661 9.10854 -0.178775 9.94549 0.223777C10.7748 0.622871 11.1829 1.32284 11.1767 2.22132C11.1697 3.16338 10.6785 3.8419 9.81178 4.19604C8.96997 4.5398 8.18291 4.38279 7.51085 3.7589C7.24896 3.51613 7.0023 3.25675 6.70577 3.05409C5.97066 2.55125 5.17389 2.55747 4.45958 3.09075C4.20184 3.28303 3.96835 3.50783 3.72793 3.72225C3.06419 4.31501 2.30137 4.52043 1.4568 4.22094C0.627469 3.92698 0.158416 3.31001 0.0233116 2.43712C-0.17207 1.17897 0.881742 -0.0065494 2.39491 0.0107424Z" fill="black" style="fill:black;fill-opacity:1;"/>
<path d="M15.8326 1.84412e-05C17.0387 0.0041978 18.0069 0.982168 18 2.19C17.993 3.39993 17.0178 4.3765 15.818 4.37441C14.6029 4.37233 13.6159 3.37485 13.6257 2.15935C13.6354 0.957788 14.6189 -0.00485748 15.8326 1.84412e-05Z" fill="black" style="fill:black;fill-opacity:1;"/>
</svg>
