<svg width="22" height="24" viewBox="0 0 22 24" fill="none" xmlns="http://www.w3.org/2000/svg">
<path d="M2 6L5 2H17L20 6M2 6V20C2 20.5304 2.21071 21.0391 2.58579 21.4142C2.96086 21.7893 3.46957 22 4 22H18C18.5304 22 19.0391 21.7893 19.4142 21.4142C19.7893 21.0391 20 20.5304 20 20V6M2 6H20M15 10C15 11.0609 14.5786 12.0783 13.8284 12.8284C13.0783 13.5786 12.0609 14 11 14C9.93913 14 8.92172 13.5786 8.17157 12.8284C7.42143 12.0783 7 11.0609 7 10" stroke="#1E1E1E" style="stroke:#1E1E1E;stroke:color(display-p3 0.1176 0.1176 0.1176);stroke-opacity:1;" stroke-width="3" stroke-linecap="round" stroke-linejoin="round"/>
</svg>
